<?xml version="1.0" encoding="utf-8"?>
<!-- Generator: Adobe Illustrator 22.1.0, SVG Export Plug-In . SVG Version: 6.00 Build 0)  -->
<svg version="1.1" id="Layer_1" xmlns="http://www.w3.org/2000/svg" xmlns:xlink="http://www.w3.org/1999/xlink" x="0px" y="0px"
	 viewBox="0 0 283.5 99.2" style="enable-background:new 0 0 283.5 99.2;" xml:space="preserve">
<style type="text/css">
	.st0{fill:#FFFFFF;}
</style>
<g>
	<g>
		<path class="st0" d="M113.5,80.1H90.4l-4.5,12c-0.3,0.7-0.9,1.2-1.7,1.2c-0.1,0-0.4-0.1-0.7-0.1c-0.9-0.4-1.4-1.5-1-2.3l17.6-47.1
			c0.3-0.7,1-1.1,1.7-1.1c0.8,0,1.5,0.4,1.7,1.1l17.6,47.1c0.4,0.9-0.1,2-0.9,2.3c-0.3,0-0.4,0.1-0.7,0.1c-0.7,0-1.4-0.4-1.7-1.2
			L113.5,80.1z M91.7,76.6h20.5L102,49.3L91.7,76.6z"/>
		<path class="st0" d="M136,46h-15.3c-0.9,0-1.7-0.8-1.7-1.8c0-0.9,0.8-1.7,1.7-1.7h34.1c0.9,0,1.7,0.8,1.7,1.7c0,1-0.8,1.8-1.7,1.8
			h-15.3v45.5c0,0.9-0.8,1.7-1.7,1.7c-0.9,0-1.7-0.8-1.7-1.7V46z"/>
		<path class="st0" d="M181.4,92.2c-0.1,0-0.1-0.1-0.1-0.1l-0.1-0.1l-17.1-46.8c-0.4-0.9,0.1-2,0.9-2.3c0.9-0.4,2,0,2.3,0.9L183,87
			l15.6-43.2c0.3-0.9,1.4-1.3,2.2-0.9c0.9,0.4,1.3,1.5,0.9,2.3l-17.1,46.4c-0.1,0.7-0.4,1.2-1,1.5h-0.1c-0.2,0.1-0.4,0.1-0.7,0.1
			s-0.5,0-0.7-0.1c-0.1,0-0.1-0.1-0.1-0.1C181.8,93,181.5,92.7,181.4,92.2z"/>
		<path class="st0" d="M214.4,44.2c0-0.9,0.8-1.7,1.7-1.7c1,0,1.8,0.8,1.8,1.7v47.3c0,0.9-0.8,1.7-1.8,1.7c-0.9,0-1.7-0.8-1.7-1.7
			V44.2z"/>
		<path class="st0" d="M230.3,84.8c0.6-0.7,1.6-0.8,2.2-0.2c3.8,3,8.5,5.5,15.2,5.4c4.4,0,8.4-1.3,11.2-3.3c2.8-2,4.4-4.7,4.4-7.5
			c0-2.9-1.4-5.1-4.1-7c-2.8-1.8-6.8-3.2-11.8-4.1h-0.1c-4.7-0.9-8.9-2.2-12-4.3c-3.1-2-5.2-5.1-5.2-8.9c0-3.8,2.1-7.2,5.3-9.5
			c3.2-2.3,7.5-3.7,12.3-3.7c6.7,0,11.7,3.3,15.7,5.9c0.7,0.5,0.9,1.5,0.4,2.2c-0.4,0.7-1.5,0.9-2.2,0.4c-4-2.6-8.3-5.4-13.9-5.4
			c-4.1,0-7.8,1.2-10.4,3c-2.5,1.9-4,4.4-4,7c0.1,2.5,1.2,4.4,3.8,6.2c2.5,1.7,6.3,3,10.9,3.8h0.1c5.1,0.9,9.6,2.4,12.9,4.6
			c3.3,2.2,5.6,5.5,5.6,9.6c0,4.1-2.3,7.7-5.7,10.2c-3.4,2.5-8,4-13.1,4c-7.8-0.1-13-2.9-17.2-6.2C229.9,86.5,229.8,85.5,230.3,84.8
			z"/>
	</g>
	<path class="st0" d="M67.3,65.3c0-3,1.4-5.7,3.7-7.4c-1.3-4.7-3.8-8.9-7.1-12.3c-2.6,1.1-5.6,1-8.3-0.5c-2.6-1.5-4.2-4.1-4.6-6.9
		c-2.3-0.6-4.6-0.9-7.1-0.9c-2.4,0-4.8,0.3-7.1,0.9c-0.4,2.8-2,5.4-4.6,6.9c-2.6,1.5-5.7,1.6-8.3,0.5c-3.3,3.4-5.8,7.6-7.1,12.3
		c2.2,1.7,3.7,4.4,3.7,7.4c0,3-1.4,5.7-3.7,7.4c1.3,4.7,3.8,8.9,7.1,12.3c2.6-1.1,5.6-1,8.3,0.5c2.6,1.5,4.2,4.1,4.6,6.9
		c2.3,0.6,4.6,0.9,7.1,0.9c2.4,0,4.8-0.3,7.1-0.9c0.4-2.8,2-5.4,4.6-6.9c2.6-1.5,5.7-1.6,8.3-0.5c3.3-3.4,5.8-7.6,7.1-12.3
		C68.7,71,67.3,68.3,67.3,65.3z M52.9,70.4c-0.3,0.5-0.6,0.9-0.9,1.4c0.4,0.8,0.4,1.7,0.2,2.5c-0.3,1-0.9,1.7-1.7,2.2
		c-0.6,0.3-1.2,0.5-1.8,0.5c-1.2,0-2.3-0.6-3-1.6c-2.3,0.4-4.7-0.1-6.8-1.2c-2.4-1.4-4.1-3.6-4.8-6.3c-0.7-2.7-0.3-5.5,1-7.8
		c1.4-2.4,3.6-4.1,6.3-4.8c2.7-0.7,5.4-0.3,7.8,1C54.1,59.2,55.8,65.5,52.9,70.4z"/>
	<path class="st0" d="M85.2,18.4c-1.7-0.2-3.4-1.2-4.3-2.9c-0.9-1.6-1-3.6-0.3-5.2c-2.1-2.1-4.7-3.6-7.7-4.4
		c-1.1,1.4-2.8,2.3-4.7,2.3s-3.6-0.9-4.7-2.3c-2.9,0.8-5.6,2.4-7.7,4.4c0.7,1.6,0.6,3.5-0.3,5.2c-0.9,1.6-2.6,2.7-4.3,2.9
		c-0.4,1.4-0.6,2.9-0.6,4.4c0,1.5,0.2,3,0.6,4.4c1.7,0.2,3.4,1.2,4.3,2.9c0.9,1.6,1,3.6,0.3,5.2c2.1,2.1,4.7,3.6,7.7,4.4
		c1.1-1.4,2.8-2.3,4.7-2.3s3.6,0.9,4.7,2.3c2.9-0.8,5.6-2.4,7.7-4.4c-0.7-1.6-0.6-3.5,0.3-5.2c0.9-1.6,2.6-2.7,4.3-2.9
		c0.4-1.4,0.6-2.9,0.6-4.4C85.8,21.3,85.6,19.8,85.2,18.4z M74.5,24.5c-0.4,1.7-1.5,3.1-3,3.9c-0.3,0.2-0.6,0.3-0.9,0.4
		c-0.1,1.2-1.1,2.1-2.3,2.1c-1.2,0-2.2-0.9-2.3-2.1c-1.4-0.5-2.6-1.5-3.3-2.8C60.8,23,61.9,19,65,17.2c3.1-1.8,7.1-0.7,8.9,2.4
		C74.7,21.1,75,22.8,74.5,24.5z"/>
</g>
</svg>
