<?xml version="1.0" encoding="utf-8"?>
<!-- Generator: Adobe Illustrator 15.1.0, SVG Export Plug-In . SVG Version: 6.00 Build 0)  -->
<!DOCTYPE svg PUBLIC "-//W3C//DTD SVG 1.1//EN" "http://www.w3.org/Graphics/SVG/1.1/DTD/svg11.dtd">
<svg version="1.1" xmlns="http://www.w3.org/2000/svg" xmlns:xlink="http://www.w3.org/1999/xlink" x="0px" y="0px"
	 width="5962.807px" height="1913.617px" viewBox="0 0 5962.807 1913.617" enable-background="new 0 0 5962.807 1913.617"
	 xml:space="preserve">
<g id="Colored_Icon">
</g>
<g id="Colored_Icon_copy" display="none">
	<g display="inline">
		<path d="M1520.505,607.771c-0.039-0.035-0.081-0.07-0.121-0.105c-0.169-0.149-0.343-0.297-0.53-0.445
			c-0.036-0.028-0.075-0.057-0.111-0.085c-0.198-0.154-0.404-0.307-0.622-0.459c-0.031-0.022-0.064-0.043-0.096-0.065
			c-0.229-0.158-0.468-0.315-0.717-0.471c-0.025-0.016-0.052-0.031-0.077-0.047c-0.261-0.161-0.531-0.32-0.813-0.478
			c-0.02-0.011-0.041-0.022-0.061-0.034c-0.291-0.162-0.592-0.322-0.904-0.48c-0.015-0.008-0.03-0.015-0.045-0.022
			c-0.16-0.081-0.33-0.159-0.495-0.238c-7.627,3.264-18.729,5.062-29.621,5.062s-21.994-1.797-29.621-5.062
			c-0.165,0.079-0.335,0.157-0.495,0.238c-0.015,0.007-0.03,0.015-0.045,0.022c-0.313,0.158-0.613,0.318-0.904,0.48
			c-0.02,0.011-0.041,0.022-0.061,0.034c-0.282,0.158-0.552,0.317-0.813,0.478c-0.025,0.016-0.052,0.031-0.077,0.047
			c-0.25,0.156-0.488,0.313-0.717,0.471c-0.032,0.021-0.064,0.043-0.096,0.065c-0.218,0.152-0.423,0.305-0.622,0.459
			c-0.037,0.028-0.075,0.057-0.111,0.085c-0.187,0.147-0.361,0.296-0.53,0.445c-0.04,0.035-0.083,0.07-0.121,0.105
			c-0.157,0.143-0.302,0.286-0.443,0.43c-0.041,0.042-0.085,0.083-0.124,0.125c-0.13,0.137-0.247,0.275-0.361,0.413
			c-0.04,0.048-0.084,0.096-0.122,0.145c-0.104,0.132-0.195,0.264-0.285,0.396c-0.037,0.054-0.079,0.108-0.113,0.163
			c-0.081,0.128-0.148,0.256-0.216,0.384c-0.031,0.059-0.067,0.117-0.095,0.175c-0.061,0.126-0.106,0.251-0.153,0.377
			c-0.022,0.06-0.051,0.12-0.07,0.18c-0.042,0.131-0.069,0.261-0.097,0.392c-0.011,0.054-0.03,0.109-0.039,0.163
			c-0.03,0.185-0.046,0.368-0.046,0.551c0,5.758,14.939,12.173,36.376,12.173s36.376-6.415,36.376-12.173
			c0-0.183-0.016-0.367-0.046-0.551c-0.009-0.054-0.027-0.109-0.039-0.163c-0.027-0.13-0.055-0.261-0.097-0.392
			c-0.019-0.06-0.048-0.12-0.07-0.18c-0.047-0.126-0.093-0.251-0.153-0.377c-0.028-0.058-0.064-0.116-0.095-0.175
			c-0.067-0.128-0.135-0.256-0.216-0.384c-0.034-0.055-0.076-0.109-0.113-0.163c-0.09-0.132-0.18-0.264-0.285-0.396
			c-0.038-0.048-0.082-0.096-0.122-0.145c-0.114-0.138-0.231-0.276-0.361-0.413c-0.039-0.042-0.083-0.083-0.124-0.125
			C1520.808,608.058,1520.663,607.914,1520.505,607.771z"/>
		<path d="M1514.642,587.323c-7.56,2.936-18.047,4.543-28.348,4.543s-20.788-1.608-28.348-4.543
			c-5.107,2.191-8.028,4.863-8.028,7.407c0,0.165,0.016,0.331,0.04,0.497c0.007,0.052,0.02,0.105,0.03,0.158
			c0.022,0.115,0.049,0.229,0.082,0.345c0.018,0.06,0.037,0.121,0.058,0.181c0.038,0.111,0.083,0.223,0.131,0.333
			c0.025,0.058,0.049,0.117,0.078,0.175c0.064,0.133,0.138,0.267,0.218,0.4c0.02,0.034,0.036,0.067,0.057,0.101
			c0.101,0.162,0.214,0.323,0.336,0.484c0.047,0.062,0.1,0.124,0.15,0.186c0.083,0.103,0.168,0.206,0.26,0.308
			c0.063,0.071,0.13,0.142,0.198,0.212c0.09,0.094,0.184,0.188,0.281,0.282c0.075,0.072,0.149,0.144,0.228,0.216
			c0.107,0.098,0.221,0.194,0.336,0.292c0.077,0.065,0.149,0.13,0.23,0.195c0.184,0.148,0.378,0.296,0.58,0.443
			c0.104,0.075,0.214,0.15,0.322,0.225c0.119,0.082,0.237,0.164,0.36,0.245c0.121,0.08,0.246,0.158,0.371,0.237
			c0.121,0.075,0.243,0.15,0.368,0.225c0.134,0.08,0.27,0.16,0.409,0.239c0.128,0.073,0.262,0.145,0.395,0.217
			c0.143,0.078,0.284,0.156,0.432,0.233c0.258,0.134,0.523,0.267,0.796,0.398c0.594,0.285,1.226,0.563,1.89,0.833
			c0.014,0.006,0.028,0.012,0.042,0.018c0.67,0.271,1.374,0.535,2.11,0.79c0,0,0,0,0,0c0,0,0,0,0,0
			c6.374,2.203,15.217,3.707,25.589,3.707s19.215-1.504,25.589-3.707c0,0,0,0,0,0c0,0,0,0,0,0c0.736-0.254,1.44-0.518,2.11-0.79
			c0.014-0.006,0.028-0.012,0.042-0.018c0.664-0.27,1.296-0.548,1.89-0.833c0.273-0.132,0.538-0.264,0.796-0.398
			c0.148-0.077,0.289-0.155,0.432-0.233c0.133-0.072,0.266-0.144,0.395-0.217c0.139-0.079,0.274-0.159,0.409-0.239
			c0.125-0.075,0.248-0.149,0.368-0.225c0.125-0.079,0.25-0.157,0.371-0.237c0.124-0.081,0.242-0.163,0.36-0.245
			c0.108-0.075,0.219-0.149,0.322-0.225c0.202-0.147,0.396-0.295,0.58-0.443c0.081-0.065,0.153-0.13,0.23-0.195
			c0.115-0.097,0.229-0.194,0.336-0.292c0.079-0.072,0.153-0.144,0.228-0.216c0.097-0.094,0.191-0.188,0.281-0.282
			c0.068-0.07,0.134-0.142,0.198-0.212c0.092-0.102,0.177-0.205,0.26-0.308c0.05-0.062,0.103-0.124,0.15-0.186
			c0.122-0.161,0.236-0.322,0.336-0.484c0.021-0.034,0.037-0.067,0.057-0.101c0.08-0.133,0.153-0.267,0.218-0.4
			c0.028-0.058,0.052-0.117,0.078-0.175c0.048-0.111,0.093-0.222,0.131-0.333c0.021-0.061,0.04-0.121,0.058-0.181
			c0.033-0.115,0.06-0.23,0.082-0.345c0.01-0.053,0.023-0.105,0.03-0.158c0.024-0.166,0.04-0.332,0.04-0.497
			C1522.67,592.186,1519.749,589.514,1514.642,587.323z"/>
		<path d="M1486.294,588.867c21.437,0,36.376-6.417,36.376-12.175c0-5.758-14.939-12.173-36.376-12.173s-36.376,6.415-36.376,12.173
			C1449.918,582.45,1464.857,588.867,1486.294,588.867z"/>
	</g>
</g>
<g id="Black_Icon_copy" display="none">
	<g display="inline">
		<path d="M1520.505,607.771c-0.039-0.035-0.081-0.07-0.121-0.105c-0.169-0.149-0.343-0.297-0.53-0.445
			c-0.036-0.028-0.075-0.057-0.111-0.085c-0.198-0.154-0.404-0.307-0.622-0.459c-0.031-0.022-0.064-0.043-0.096-0.065
			c-0.229-0.158-0.468-0.315-0.717-0.471c-0.025-0.016-0.052-0.031-0.077-0.047c-0.261-0.161-0.531-0.32-0.813-0.478
			c-0.02-0.011-0.041-0.022-0.061-0.034c-0.291-0.162-0.592-0.322-0.904-0.48c-0.015-0.008-0.03-0.015-0.045-0.022
			c-0.16-0.081-0.33-0.159-0.495-0.238c-7.627,3.264-18.729,5.062-29.621,5.062s-21.994-1.797-29.621-5.062
			c-0.165,0.079-0.335,0.157-0.495,0.238c-0.015,0.007-0.03,0.015-0.045,0.022c-0.313,0.158-0.613,0.318-0.904,0.48
			c-0.02,0.011-0.041,0.022-0.061,0.034c-0.282,0.158-0.552,0.317-0.813,0.478c-0.025,0.016-0.052,0.031-0.077,0.047
			c-0.25,0.156-0.488,0.313-0.717,0.471c-0.032,0.021-0.064,0.043-0.096,0.065c-0.218,0.152-0.423,0.305-0.622,0.459
			c-0.037,0.028-0.075,0.057-0.111,0.085c-0.187,0.147-0.361,0.296-0.53,0.445c-0.04,0.035-0.083,0.07-0.121,0.105
			c-0.157,0.143-0.302,0.286-0.443,0.43c-0.041,0.042-0.085,0.083-0.124,0.125c-0.13,0.137-0.247,0.275-0.361,0.413
			c-0.04,0.048-0.084,0.096-0.122,0.145c-0.104,0.132-0.195,0.264-0.285,0.396c-0.037,0.054-0.079,0.108-0.113,0.163
			c-0.081,0.128-0.148,0.256-0.216,0.384c-0.031,0.059-0.067,0.117-0.095,0.175c-0.061,0.126-0.106,0.251-0.153,0.377
			c-0.022,0.06-0.051,0.12-0.07,0.18c-0.042,0.131-0.069,0.261-0.097,0.392c-0.011,0.054-0.03,0.109-0.039,0.163
			c-0.03,0.185-0.046,0.368-0.046,0.551c0,5.758,14.939,12.173,36.376,12.173s36.376-6.415,36.376-12.173
			c0-0.183-0.016-0.367-0.046-0.551c-0.009-0.054-0.027-0.109-0.039-0.163c-0.027-0.13-0.055-0.261-0.097-0.392
			c-0.019-0.06-0.048-0.12-0.07-0.18c-0.047-0.126-0.093-0.251-0.153-0.377c-0.028-0.058-0.064-0.116-0.095-0.175
			c-0.067-0.128-0.135-0.256-0.216-0.384c-0.034-0.055-0.076-0.109-0.113-0.163c-0.09-0.132-0.18-0.264-0.285-0.396
			c-0.038-0.048-0.082-0.096-0.122-0.145c-0.114-0.138-0.231-0.276-0.361-0.413c-0.039-0.042-0.083-0.083-0.124-0.125
			C1520.808,608.058,1520.663,607.914,1520.505,607.771z"/>
		<path d="M1514.642,587.323c-7.56,2.936-18.047,4.543-28.348,4.543s-20.788-1.608-28.348-4.543
			c-5.107,2.191-8.028,4.863-8.028,7.407c0,0.165,0.016,0.331,0.04,0.497c0.007,0.052,0.02,0.105,0.03,0.158
			c0.022,0.115,0.049,0.229,0.082,0.345c0.018,0.06,0.037,0.121,0.058,0.181c0.038,0.111,0.083,0.223,0.131,0.333
			c0.025,0.058,0.049,0.117,0.078,0.175c0.064,0.133,0.138,0.267,0.218,0.4c0.02,0.034,0.036,0.067,0.057,0.101
			c0.101,0.162,0.214,0.323,0.336,0.484c0.047,0.062,0.1,0.124,0.15,0.186c0.083,0.103,0.168,0.206,0.26,0.308
			c0.063,0.071,0.13,0.142,0.198,0.212c0.09,0.094,0.184,0.188,0.281,0.282c0.075,0.072,0.149,0.144,0.228,0.216
			c0.107,0.098,0.221,0.194,0.336,0.292c0.077,0.065,0.149,0.13,0.23,0.195c0.184,0.148,0.378,0.296,0.58,0.443
			c0.104,0.075,0.214,0.15,0.322,0.225c0.119,0.082,0.237,0.164,0.36,0.245c0.121,0.08,0.246,0.158,0.371,0.237
			c0.121,0.075,0.243,0.15,0.368,0.225c0.134,0.08,0.27,0.16,0.409,0.239c0.128,0.073,0.262,0.145,0.395,0.217
			c0.143,0.078,0.284,0.156,0.432,0.233c0.258,0.134,0.523,0.267,0.796,0.398c0.594,0.285,1.226,0.563,1.89,0.833
			c0.014,0.006,0.028,0.012,0.042,0.018c0.67,0.271,1.374,0.535,2.11,0.79c0,0,0,0,0,0c0,0,0,0,0,0
			c6.374,2.203,15.217,3.707,25.589,3.707s19.215-1.504,25.589-3.707c0,0,0,0,0,0c0,0,0,0,0,0c0.736-0.254,1.44-0.518,2.11-0.79
			c0.014-0.006,0.028-0.012,0.042-0.018c0.664-0.27,1.296-0.548,1.89-0.833c0.273-0.132,0.538-0.264,0.796-0.398
			c0.148-0.077,0.289-0.155,0.432-0.233c0.133-0.072,0.266-0.144,0.395-0.217c0.139-0.079,0.274-0.159,0.409-0.239
			c0.125-0.075,0.248-0.149,0.368-0.225c0.125-0.079,0.25-0.157,0.371-0.237c0.124-0.081,0.242-0.163,0.36-0.245
			c0.108-0.075,0.219-0.149,0.322-0.225c0.202-0.147,0.396-0.295,0.58-0.443c0.081-0.065,0.153-0.13,0.23-0.195
			c0.115-0.097,0.229-0.194,0.336-0.292c0.079-0.072,0.153-0.144,0.228-0.216c0.097-0.094,0.191-0.188,0.281-0.282
			c0.068-0.07,0.134-0.142,0.198-0.212c0.092-0.102,0.177-0.205,0.26-0.308c0.05-0.062,0.103-0.124,0.15-0.186
			c0.122-0.161,0.236-0.322,0.336-0.484c0.021-0.034,0.037-0.067,0.057-0.101c0.08-0.133,0.153-0.267,0.218-0.4
			c0.028-0.058,0.052-0.117,0.078-0.175c0.048-0.111,0.093-0.222,0.131-0.333c0.021-0.061,0.04-0.121,0.058-0.181
			c0.033-0.115,0.06-0.23,0.082-0.345c0.01-0.053,0.023-0.105,0.03-0.158c0.024-0.166,0.04-0.332,0.04-0.497
			C1522.67,592.186,1519.749,589.514,1514.642,587.323z"/>
	</g>
</g>
<g id="InPlan" display="none">
	<g display="inline">
		<path d="M1554.36,621.949v-56.8h7.2v56.8H1554.36z"/>
		<path d="M1610.28,621.949h-7.04v-23.36c0-4.48-0.68-7.732-2.04-9.76c-1.36-2.026-3.427-3.04-6.2-3.04c-1.44,0-2.88,0.28-4.32,0.84
			s-2.8,1.32-4.08,2.28c-1.28,0.96-2.4,2.107-3.36,3.44c-0.96,1.334-1.68,2.8-2.16,4.4v25.2h-7.04v-41.76h6.4v8.96
			c1.652-2.933,4.04-5.28,7.16-7.04c3.12-1.76,6.52-2.64,10.2-2.64c2.4,0,4.4,0.44,6,1.32c1.6,0.88,2.88,2.107,3.84,3.68
			c0.96,1.574,1.64,3.427,2.04,5.56c0.4,2.134,0.6,4.454,0.6,6.96V621.949z"/>
		<path d="M1622.359,621.949v-56.8h23.681c2.506,0,4.813,0.52,6.92,1.56c2.105,1.04,3.92,2.428,5.439,4.16
			c1.521,1.734,2.706,3.68,3.561,5.84c0.853,2.16,1.279,4.36,1.279,6.6c0,2.348-0.399,4.614-1.199,6.8
			c-0.801,2.188-1.935,4.134-3.4,5.84c-1.468,1.708-3.228,3.067-5.28,4.08c-2.054,1.014-4.334,1.52-6.84,1.52h-16.96v20.4H1622.359z
			 M1629.559,595.149h16.56c1.493,0,2.841-0.307,4.04-0.92c1.2-0.612,2.227-1.466,3.08-2.56c0.853-1.093,1.521-2.36,2-3.8
			c0.48-1.44,0.721-2.96,0.721-4.56c0-1.652-0.28-3.2-0.841-4.64c-0.56-1.44-1.307-2.693-2.239-3.76
			c-0.934-1.066-2.027-1.893-3.28-2.48c-1.254-0.586-2.574-0.88-3.96-0.88h-16.08V595.149z"/>
		<path d="M1671.238,563.549h7.04v47.6c0,1.547,0.413,2.76,1.24,3.64c0.826,0.88,1.986,1.32,3.479,1.32
			c0.587,0,1.28-0.093,2.08-0.28c0.801-0.186,1.547-0.413,2.24-0.68l1.12,5.68c-1.174,0.48-2.56,0.88-4.16,1.2
			c-1.6,0.32-3.014,0.48-4.24,0.48c-2.72,0-4.867-0.772-6.439-2.32c-1.574-1.546-2.36-3.707-2.36-6.48V563.549z"/>
		<path d="M1704.678,622.749c-1.975,0-3.814-0.333-5.521-1c-1.707-0.666-3.188-1.586-4.439-2.76c-1.254-1.172-2.24-2.546-2.96-4.12
			c-0.721-1.572-1.08-3.292-1.08-5.16c0-1.92,0.426-3.666,1.279-5.24c0.853-1.573,2.066-2.92,3.641-4.04
			c1.572-1.12,3.439-2,5.6-2.64c2.16-0.64,4.521-0.96,7.08-0.96c2.026,0,4.08,0.188,6.16,0.56c2.08,0.374,3.92,0.88,5.52,1.52v-3.36
			c0-3.413-0.96-6.093-2.88-8.04c-1.92-1.946-4.64-2.92-8.16-2.92c-4.214,0-8.64,1.627-13.279,4.88l-2.32-4.56
			c5.386-3.626,10.8-5.44,16.24-5.44c5.492,0,9.772,1.467,12.84,4.4c3.066,2.934,4.6,7.067,4.6,12.4v17.04
			c0,1.654,0.746,2.508,2.24,2.56v6.08c-0.747,0.106-1.36,0.186-1.84,0.24c-0.48,0.052-0.987,0.08-1.521,0.08
			c-1.387,0-2.493-0.412-3.319-1.24c-0.828-0.826-1.32-1.826-1.48-3l-0.16-2.96c-1.867,2.507-4.228,4.414-7.08,5.72
			C1710.984,622.095,1707.93,622.749,1704.678,622.749z M1706.518,617.469c2.506,0,4.84-0.466,7-1.4c2.16-0.933,3.8-2.173,4.92-3.72
			c1.013-1.012,1.52-2.052,1.52-3.12v-6.16c-3.413-1.333-6.96-2-10.64-2c-3.521,0-6.388,0.748-8.6,2.24
			c-2.214,1.494-3.32,3.44-3.32,5.84c0,1.173,0.227,2.267,0.68,3.28c0.453,1.014,1.093,1.894,1.92,2.64
			c0.826,0.748,1.8,1.333,2.92,1.76C1704.038,617.256,1705.238,617.469,1706.518,617.469z"/>
		<path d="M1774.517,621.949h-7.04v-23.36c0-4.48-0.68-7.732-2.04-9.76c-1.359-2.026-3.428-3.04-6.2-3.04
			c-1.439,0-2.88,0.28-4.319,0.84c-1.44,0.56-2.801,1.32-4.08,2.28c-1.28,0.96-2.4,2.107-3.36,3.44c-0.96,1.334-1.68,2.8-2.16,4.4
			v25.2h-7.04v-41.76h6.4v8.96c1.652-2.933,4.04-5.28,7.16-7.04c3.12-1.76,6.52-2.64,10.2-2.64c2.399,0,4.399,0.44,6,1.32
			c1.6,0.88,2.88,2.107,3.84,3.68c0.96,1.574,1.64,3.427,2.04,5.56c0.399,2.134,0.6,4.454,0.6,6.96V621.949z"/>
	</g>
</g>
<g id="Atvis_copy">
	<g>
		<g>
			<path fill="#3366FF" d="M2049.546,1056.882c-0.428-0.391-0.901-0.776-1.347-1.167c-1.878-1.657-3.817-3.309-5.892-4.948
				c-0.402-0.315-0.832-0.63-1.238-0.944c-2.205-1.711-4.491-3.416-6.913-5.104c-0.348-0.245-0.712-0.484-1.063-0.723
				c-2.554-1.76-5.203-3.509-7.979-5.241c-0.282-0.173-0.576-0.347-0.857-0.521c-2.9-1.786-5.902-3.561-9.037-5.316
				c-0.222-0.124-0.451-0.249-0.673-0.374c-3.237-1.798-6.582-3.578-10.058-5.338c-0.168-0.087-0.336-0.169-0.5-0.251
				c-1.775-0.895-3.665-1.764-5.5-2.643c-84.824,36.302-208.299,56.291-329.431,56.291c-121.133,0-244.606-19.989-329.43-56.291
				c-1.835,0.879-3.725,1.748-5.501,2.643c-0.163,0.082-0.332,0.164-0.5,0.251c-3.476,1.76-6.821,3.54-10.057,5.338
				c-0.223,0.125-0.451,0.25-0.674,0.374c-3.134,1.756-6.137,3.53-9.036,5.316c-0.282,0.175-0.576,0.349-0.858,0.521
				c-2.775,1.732-5.425,3.481-7.978,5.241c-0.353,0.238-0.717,0.478-1.064,0.723c-2.421,1.688-4.708,3.394-6.913,5.104
				c-0.408,0.314-0.837,0.629-1.238,0.944c-2.074,1.64-4.013,3.291-5.892,4.948c-0.446,0.391-0.918,0.776-1.348,1.167
				c-1.749,1.585-3.361,3.183-4.931,4.778c-0.45,0.461-0.944,0.923-1.379,1.391c-1.445,1.525-2.748,3.059-4.018,4.594
				c-0.446,0.538-0.939,1.07-1.357,1.607c-1.163,1.467-2.167,2.934-3.167,4.405c-0.413,0.603-0.88,1.204-1.26,1.812
				c-0.901,1.426-1.65,2.848-2.4,4.27c-0.342,0.652-0.749,1.297-1.059,1.945c-0.674,1.4-1.184,2.795-1.705,4.197
				c-0.244,0.669-0.57,1.335-0.781,2.004c-0.468,1.455-0.772,2.904-1.076,4.354c-0.125,0.604-0.332,1.212-0.429,1.816
				c-0.336,2.051-0.51,4.094-0.51,6.13c0,64.037,166.146,135.382,404.561,135.382c238.415,0,404.562-71.345,404.562-135.382
				c0-2.036-0.174-4.079-0.511-6.13c-0.099-0.604-0.304-1.213-0.429-1.816c-0.305-1.449-0.609-2.898-1.075-4.354
				c-0.212-0.669-0.539-1.335-0.782-2.004c-0.521-1.402-1.033-2.797-1.706-4.197c-0.31-0.648-0.717-1.293-1.058-1.945
				c-0.75-1.422-1.5-2.844-2.401-4.27c-0.38-0.607-0.847-1.209-1.26-1.812c-0.999-1.472-2.004-2.938-3.165-4.405
				c-0.418-0.537-0.913-1.069-1.357-1.607c-1.271-1.535-2.574-3.068-4.02-4.594c-0.434-0.468-0.93-0.93-1.379-1.391
				C2052.908,1060.065,2051.295,1058.467,2049.546,1056.882z"/>
			<path fill="#669966" d="M1984.333,829.464c-84.075,32.647-200.718,50.53-315.273,50.53c-114.557,0-231.198-17.883-315.273-50.53
				c-56.797,24.366-89.288,54.082-89.288,82.38c0,1.836,0.174,3.677,0.445,5.522c0.082,0.582,0.222,1.167,0.337,1.754
				c0.244,1.276,0.543,2.552,0.913,3.834c0.195,0.668,0.413,1.341,0.64,2.014c0.424,1.238,0.919,2.477,1.456,3.709
				c0.283,0.646,0.548,1.298,0.864,1.945c0.717,1.482,1.536,2.969,2.422,4.452c0.222,0.375,0.402,0.75,0.636,1.125
				c1.118,1.798,2.384,3.589,3.741,5.381c0.522,0.69,1.108,1.375,1.668,2.064c0.923,1.14,1.873,2.286,2.894,3.421
				c0.706,0.787,1.445,1.58,2.199,2.362c1,1.048,2.048,2.091,3.124,3.133c0.835,0.804,1.657,1.603,2.536,2.406
				c1.189,1.085,2.459,2.161,3.736,3.241c0.852,0.723,1.662,1.451,2.558,2.172c2.047,1.652,4.208,3.297,6.452,4.932
				c1.151,0.836,2.384,1.668,3.584,2.498c1.319,0.913,2.633,1.818,4.008,2.721c1.34,0.886,2.731,1.759,4.126,2.634
				c1.341,0.837,2.704,1.667,4.095,2.498c1.493,0.891,2.998,1.78,4.545,2.661c1.428,0.814,2.91,1.613,4.388,2.416
				c1.59,0.869,3.155,1.738,4.801,2.596c2.872,1.494,5.82,2.966,8.856,4.432c6.604,3.172,13.631,6.262,21.016,9.264
				c0.158,0.065,0.31-0.156,0.468-0.094c7.45,3.021,15.275,6.494,23.464,8.494c0,0,0,0,0.005,0c-0.005,0-0.005,0-0.005,0
				c70.884,25,169.236,41.228,284.59,41.228c115.354,0,213.706-16.228,284.591-41.228c0,0,0,0-0.006,0c0.006,0,0.006,0,0.006,0
				c8.188-2,16.014-5.474,23.465-8.494c0.157-0.063,0.311,0.015,0.467-0.05c7.386-3.003,14.412-6.021,21.016-9.193
				c3.037-1.466,5.984-2.899,8.857-4.394c1.646-0.857,3.209-1.71,4.801-2.58c1.477-0.802,2.959-1.59,4.387-2.406
				c1.549-0.88,3.053-1.766,4.547-2.658c1.391-0.828,2.753-1.656,4.095-2.493c1.396-0.874,2.786-1.747,4.128-2.633
				c1.372-0.902,2.688-1.809,4.007-2.721c1.2-0.831,2.433-1.661,3.585-2.497c2.24-1.635,4.402-3.279,6.451-4.932
				c0.895-0.721,1.704-1.449,2.557-2.172c1.275-1.08,2.547-2.156,3.736-3.241c0.881-0.804,1.699-1.602,2.537-2.406
				c1.074-1.042,2.122-2.085,3.121-3.133c0.755-0.783,1.494-1.575,2.199-2.362c1.021-1.135,1.972-2.281,2.896-3.421
				c0.56-0.69,1.146-1.374,1.667-2.064c1.357-1.792,2.623-3.583,3.741-5.381c0.233-0.375,0.413-0.75,0.636-1.125
				c0.885-1.482,1.705-2.969,2.422-4.452c0.314-0.646,0.581-1.299,0.863-1.945c0.538-1.233,1.031-2.471,1.455-3.709
				c0.229-0.673,0.445-1.346,0.643-2.014c0.367-1.282,0.666-2.558,0.91-3.834c0.114-0.587,0.256-1.172,0.337-1.754
				c0.272-1.846,0.446-3.686,0.446-5.522C2073.621,883.546,2041.128,853.831,1984.333,829.464z"/>
			<path fill="#CC3333" d="M1669.059,846.63c238.415,0,404.562-71.362,404.562-135.409c0-64.037-166.146-135.383-404.562-135.383
				c-238.415,0-404.561,71.346-404.561,135.383C1264.499,775.268,1430.645,846.63,1669.059,846.63z"/>
		</g>
		<g>
			<path d="M2370.905,1214.56h-19.574l275.817-631.71h16.015l274.928,631.71h-19.574l-98.761-225.992h-330.091L2370.905,1214.56z
				 M2791.748,970.773l-156.593-362.121l-158.372,362.121H2791.748z"/>
			<path d="M3366.518,582.85v17.795H3124.51v613.915h-17.794V600.645h-242.008V582.85H3366.518z"/>
			<path d="M3758.003,913.831h166.38v300.729h-17.794v-107.657c-63.478,74.737-139.396,112.105-227.771,112.105
				c-56.359,0-107.658-15.861-153.924-47.6c-46.267-31.725-81.855-72.068-106.768-121.004
				c-24.913-48.936-37.369-99.498-37.369-151.7c0-84.816,27.429-159.401,82.3-223.768c54.858-64.353,123.229-96.536,205.084-96.536
				c115.067,0,195.435,45.974,241.117,137.908l-16.905,5.338c-45.084-83.635-119.821-125.452-224.212-125.452
				c-53.384,0-100.985,14.986-142.803,44.931c-41.817,29.959-73.402,67.773-94.756,113.441
				c-21.354,45.682-32.03,93.728-32.03,144.137c0,80.076,27.429,150.518,82.3,211.311c54.857,60.809,120.851,91.197,197.966,91.197
				c45.07,0,91.643-12.595,139.688-37.813c48.046-25.205,77.407-56.791,88.084-94.757V931.625h-148.586V913.831z"/>
			<path d="M4079.186,1214.56h-17.795V583.74h17.795V1214.56z"/>
			<path d="M4202.852,1121.138l13.346-11.566c28.472,29.667,62.281,52.354,101.43,68.064
				c39.148,15.724,77.698,23.577,115.665,23.577c37.953,0,72.514-4.587,103.654-13.79c31.141-9.189,58.277-25.497,81.41-48.936
				c23.133-23.425,34.699-50.854,34.699-82.3c0-31.433-6.826-57.235-20.464-77.407c-13.651-20.158-32.03-35.284-55.163-45.376
				c-41.525-17.197-89.571-25.802-144.137-25.802c-61.1,0-112.106-11.566-153.034-34.7c-45.682-26.094-68.509-69.983-68.509-131.68
				c0-29.055,6.52-54.566,19.574-76.517c13.04-21.938,30.542-39.148,52.494-51.604c42.109-23.133,89.557-34.699,142.356-34.699
				c52.786,0,94.159,7.118,124.118,21.354c29.945,14.235,55.608,36.479,76.962,66.729l-16.905,7.118
				c-34.407-51.604-94.312-77.407-179.726-77.407c-55.762,0-102.917,11.719-141.468,35.145
				c-38.564,23.439-58.431,60.057-59.612,109.882c0,99.066,67.912,148.585,203.749,148.585c62.865,0,116.555,10.983,161.042,32.92
				c23.717,11.274,42.401,27.888,56.053,49.825c13.638,21.952,20.464,48.046,20.464,78.296c0,30.251-7.271,56.651-21.799,79.187
				c-14.541,22.549-33.671,40.037-57.388,52.494c-47.461,24.328-98.76,36.479-153.924,36.479
				C4346.391,1219.008,4268.094,1186.395,4202.852,1121.138z"/>
		</g>
	</g>
	<g>
	</g>
</g>
</svg>
